<svg xmlns="http://www.w3.org/2000/svg" viewBox="0 0 64 64">
  <defs><radialGradient id="g" cx="50%" cy="42%" r="70%">
    <stop offset="0%" stop-color="#0d3350"/><stop offset="100%" stop-color="#08243a"/>
  </radialGradient></defs>
  <rect width="64" height="64" rx="12" fill="url(#g)"/>
  <g fill="none" stroke="#a7cbd2" stroke-width="1.4" stroke-linecap="round" opacity="0.85">
    <path d="M32 58 C 26 44 24 34 32 22"/>
    <path d="M32 46 l -6 -4 M32 40 l -7 -3 M32 34 l -6 -3 M32 28 l -5 -3"/>
    <path d="M32 46 l 6 -4 M32 40 l 7 -3 M32 34 l 6 -3 M32 28 l 5 -3"/>
  </g>
  <g>
    <circle cx="32" cy="20" r="7" fill="#eaf4f2"/>
    <circle cx="24" cy="24" r="6.2" fill="#eaf4f2"/>
    <circle cx="40" cy="24" r="6.2" fill="#eaf4f2"/>
    <circle cx="27" cy="32" r="6.2" fill="#eaf4f2"/>
    <circle cx="37" cy="32" r="6.2" fill="#eaf4f2"/>
    <circle cx="32" cy="26" r="4.6" fill="#f2c25b"/>
  </g>
</svg>